<svg width="512" height="512" viewBox="0 0 512 512" fill="none" xmlns="http://www.w3.org/2000/svg">
<rect width="512" height="512" rx="116" fill="url(#paint0_linear_9_8)"/>
<path fill-rule="evenodd" clip-rule="evenodd" d="M184.038 136.513C198.422 126.526 214.607 119.754 231.664 116.623C248.721 113.491 266.256 114.071 283.25 118.298C300.24 122.524 316.323 130.302 330.603 141.123C344.88 151.943 357.083 165.599 366.559 181.277C376.035 196.955 382.619 214.38 385.959 232.562L395.978 287.115C398.285 299.678 395.981 312.76 389.266 323.491C384.587 330.97 378.004 336.902 370.251 340.595C370 349.552 367.456 358.35 362.691 365.965C355.95 376.74 345.256 384.304 332.808 386.589L291.24 394.221C284.461 395.466 277.957 390.98 276.712 384.203C275.467 377.425 279.954 370.921 286.732 369.677L328.3 362.045C333.491 361.092 338.306 357.887 341.532 352.73C343.326 349.864 344.527 346.538 345.037 343.004C342.118 341.993 339.355 340.514 336.855 338.619C330.51 333.811 326.31 326.705 324.888 318.965L311.529 246.228C310.108 238.488 311.51 230.353 315.732 223.604C319.982 216.813 326.799 211.941 334.837 210.465C341.213 209.294 347.652 209.582 353.777 211.172C351.343 205.289 348.476 199.606 345.199 194.184C337.304 181.123 327.207 169.863 315.527 161.011C303.849 152.161 290.827 145.898 277.225 142.515C263.628 139.133 249.683 138.686 236.171 141.167C222.659 143.648 209.784 149.019 198.275 157.01C186.763 165.004 176.816 175.484 169.044 187.905C161.271 200.328 155.834 214.441 153.096 229.454C151.959 235.687 151.298 242.017 151.113 248.381C156.274 244.719 162.19 242.163 168.566 240.992C176.604 239.516 184.708 241.649 191.093 246.488C197.438 251.297 201.639 258.402 203.061 266.142L216.419 338.88C217.841 346.62 216.439 354.754 212.216 361.503C207.967 368.295 201.15 373.167 193.112 374.642C180.663 376.928 167.979 373.656 157.849 365.979C147.76 358.333 140.958 346.924 138.65 334.361L128.631 279.808C125.292 261.625 125.255 242.998 128.542 224.977C131.829 206.955 138.384 189.855 147.885 174.67C157.388 159.482 169.658 146.499 184.038 136.513ZM163.198 329.854C164.434 336.582 168.037 342.387 172.925 346.092C177.773 349.766 183.413 351.051 188.604 350.098C189.385 349.955 190.323 349.442 191.057 348.268C191.818 347.052 192.221 345.292 191.871 343.387L178.513 270.649C178.163 268.744 177.161 267.242 176.017 266.376C174.914 265.539 173.855 265.393 173.074 265.537C167.883 266.49 163.068 269.695 159.842 274.851C156.588 280.05 155.283 286.757 156.519 293.485L163.198 329.854ZM364.75 255.254C363.515 248.526 359.912 242.72 355.023 239.016C350.175 235.342 344.536 234.056 339.345 235.009C338.564 235.153 337.626 235.665 336.892 236.839C336.13 238.056 335.727 239.815 336.077 241.721L349.436 314.458C349.786 316.363 350.788 317.865 351.932 318.732C353.035 319.568 354.094 319.714 354.875 319.571C360.066 318.618 364.881 315.413 368.107 310.256C371.36 305.057 372.665 298.351 371.43 291.622L364.75 255.254Z" fill="#FFEAEA"/>
<path d="M355.023 239.016C359.912 242.72 363.515 248.526 364.75 255.254L371.43 291.622C372.665 298.351 371.36 305.057 368.107 310.256C364.881 315.413 360.066 318.618 354.875 319.571C354.094 319.714 353.035 319.568 351.932 318.732C350.788 317.865 349.786 316.363 349.436 314.458L336.077 241.721C335.727 239.815 336.13 238.056 336.892 236.839C337.626 235.665 338.564 235.153 339.345 235.009C344.536 234.056 350.175 235.342 355.023 239.016Z" fill="#E64F61"/>
<path d="M172.925 346.092C168.037 342.387 164.434 336.582 163.198 329.854L156.519 293.485C155.283 286.757 156.588 280.05 159.842 274.851C163.068 269.695 167.883 266.49 173.074 265.537C173.855 265.393 174.914 265.539 176.017 266.376C177.161 267.242 178.163 268.744 178.513 270.649L191.871 343.387C192.221 345.292 191.818 347.052 191.057 348.268C190.323 349.442 189.385 349.955 188.604 350.098C183.413 351.051 177.773 349.766 172.925 346.092Z" fill="#E64F61"/>
<defs>
<linearGradient id="paint0_linear_9_8" x1="256" y1="0" x2="256" y2="512" gradientUnits="userSpaceOnUse">
<stop stop-color="#161616"/>
<stop offset="1"/>
</linearGradient>
</defs>
</svg>
