<svg width="183" height="189" viewBox="0 0 183 189" fill="none" xmlns="http://www.w3.org/2000/svg">
<g clip-path="url(#clip0_8_4)">
<path fill-rule="evenodd" clip-rule="evenodd" d="M39.3255 15.1698C48.9679 8.4744 59.8175 3.93505 71.252 1.83567C82.6866 -0.263707 94.4414 0.125483 105.834 2.95895C117.223 5.79174 128.005 11.0058 137.578 18.2601C147.148 25.5132 155.329 34.6676 161.682 45.178C168.034 55.688 172.448 67.3692 174.687 79.5581L181.403 116.129C182.95 124.55 181.405 133.32 176.904 140.514C173.767 145.527 169.354 149.504 164.157 151.98C163.988 157.984 162.283 163.882 159.089 168.987C154.57 176.21 147.401 181.281 139.056 182.813L111.19 187.929C106.646 188.763 102.286 185.756 101.451 181.213C100.617 176.669 103.624 172.31 108.168 171.475L136.034 166.359C139.514 165.72 142.742 163.572 144.904 160.115C146.107 158.193 146.912 155.964 147.254 153.595C145.297 152.917 143.445 151.925 141.769 150.655C137.516 147.432 134.7 142.668 133.747 137.48L124.791 88.7188C123.839 83.5301 124.778 78.0771 127.609 73.5529C130.458 68.9999 135.028 65.734 140.416 64.7446C144.691 63.9598 149.007 64.1525 153.113 65.2189C151.481 61.2748 149.559 57.4653 147.362 53.8305C142.07 45.075 135.301 37.526 127.471 31.5921C119.643 25.6593 110.913 21.4608 101.795 19.193C92.6796 16.9259 83.3318 16.6263 74.2738 18.2894C65.2159 19.9524 56.5844 23.553 48.8693 28.9101C41.1519 34.2689 34.4837 41.2945 29.274 49.621C24.0632 57.9493 20.4182 67.4102 18.5824 77.4744C17.8204 81.6525 17.3771 85.8963 17.2537 90.1625C20.713 87.7072 24.679 85.9939 28.9534 85.2091C34.3421 84.2198 39.7743 85.6493 44.0549 88.8934C48.3085 92.1169 51.1245 96.8803 52.0775 102.069L61.0326 150.83C61.9856 156.019 61.0458 161.472 58.2152 165.996C55.3665 170.549 50.7966 173.815 45.408 174.804C37.0631 176.336 28.5599 174.143 21.7691 168.996C15.0053 163.871 10.4455 156.222 8.89882 147.8L2.18244 111.23C-0.0560984 99.0409 -0.0809773 86.5538 2.1226 74.473C4.32628 62.3917 8.7204 50.9285 15.0895 40.7489C21.4598 30.5675 29.6854 21.8637 39.3255 15.1698ZM25.355 144.779C26.1834 149.289 28.5987 153.181 31.8757 155.664C35.1256 158.127 38.9063 158.989 42.3861 158.35C42.9099 158.254 43.5384 157.91 44.0307 157.124C44.541 156.308 44.811 155.129 44.5764 153.851L35.6213 105.09C35.3867 103.813 34.7152 102.806 33.9484 102.225C33.2086 101.665 32.4989 101.567 31.9752 101.663C28.4953 102.302 25.2675 104.45 23.1048 107.907C20.924 111.392 20.0491 115.888 20.8774 120.399L25.355 144.779ZM160.469 94.7696C159.641 90.2592 157.225 86.3676 153.948 83.8842C150.699 81.4213 146.918 80.5594 143.438 81.1983C142.914 81.2945 142.286 81.6382 141.793 82.425C141.283 83.2406 141.013 84.4201 141.248 85.6974L150.203 134.458C150.437 135.736 151.109 136.742 151.876 137.323C152.615 137.884 153.325 137.982 153.849 137.886C157.329 137.247 160.557 135.098 162.719 131.642C164.9 128.156 165.775 123.66 164.947 119.15L160.469 94.7696Z" fill="#FFFDF5"/>
<path d="M153.948 83.8842C157.225 86.3676 159.641 90.2592 160.469 94.7696L164.947 119.15C165.775 123.66 164.9 128.156 162.719 131.642C160.557 135.098 157.329 137.247 153.849 137.886C153.325 137.982 152.615 137.884 151.876 137.323C151.109 136.742 150.437 135.736 150.203 134.458L141.248 85.6974C141.013 84.4201 141.283 83.2406 141.793 82.425C142.286 81.6382 142.914 81.2945 143.438 81.1983C146.918 80.5594 150.699 81.4213 153.948 83.8842Z" fill="#E64F57"/>
<path d="M31.8757 155.664C28.5987 153.181 26.1834 149.289 25.355 144.779L20.8774 120.399C20.0491 115.888 20.924 111.392 23.1048 107.907C25.2675 104.45 28.4953 102.302 31.9752 101.663C32.4989 101.567 33.2086 101.665 33.9484 102.225C34.7152 102.806 35.3867 103.813 35.6213 105.09L44.5764 153.851C44.811 155.129 44.541 156.308 44.0307 157.124C43.5384 157.91 42.9099 158.254 42.3861 158.35C38.9063 158.989 35.1256 158.127 31.8757 155.664Z" fill="#E64F57"/>
</g>
<defs>
<clipPath id="clip0_8_4">
<rect width="183" height="189" fill="white"/>
</clipPath>
</defs>
</svg>
