<svg width="985" height="189" viewBox="0 0 985 189" fill="none" xmlns="http://www.w3.org/2000/svg">
<path d="M985 111.581C985 119.872 983.129 127.203 979.387 133.573C975.747 139.841 970.792 144.745 964.522 148.284C958.353 151.823 951.426 153.592 943.741 153.592C936.055 153.592 929.078 151.823 922.808 148.284C916.639 144.745 911.684 139.841 907.943 133.573C904.302 127.203 902.482 119.872 902.482 111.581C902.482 103.29 904.302 96.0104 907.943 89.7416C911.684 83.3717 916.639 78.4173 922.808 74.8785C929.078 71.2386 936.055 69.4186 943.741 69.4186C951.426 69.4186 958.353 71.2386 964.522 74.8785C970.792 78.4173 975.747 83.3717 979.387 89.7416C983.129 96.0104 985 103.29 985 111.581ZM966.797 111.581C966.797 106.425 965.736 101.976 963.612 98.2348C961.589 94.3926 958.809 91.4099 955.269 89.2866C951.831 87.1633 947.988 86.1016 943.741 86.1016C939.494 86.1016 935.6 87.1633 932.061 89.2866C928.623 91.4099 925.842 94.3926 923.718 98.2348C921.696 101.976 920.684 106.425 920.684 111.581C920.684 116.637 921.696 121.086 923.718 124.928C925.842 128.669 928.623 131.601 932.061 133.724C935.6 135.848 939.494 136.909 943.741 136.909C947.988 136.909 951.831 135.848 955.269 133.724C958.809 131.601 961.589 128.669 963.612 124.928C965.736 121.086 966.797 116.637 966.797 111.581Z" fill="#FFEAEA"/>
<path d="M878.207 70.9351C880.837 70.9351 883.011 71.845 884.73 73.665C886.449 75.3839 887.309 77.5577 887.309 80.1866V144.644C887.309 153.946 885.539 161.327 882 166.787C878.561 172.348 873.91 176.342 868.044 178.768C862.179 181.195 855.606 182.408 848.325 182.408C845.089 182.408 841.651 182.156 838.01 181.65C834.37 181.144 831.387 180.386 829.061 179.375C826.027 178.061 823.903 176.392 822.69 174.37C821.578 172.449 821.375 170.376 822.083 168.152C822.993 165.22 824.46 163.197 826.482 162.085C828.505 161.074 830.628 160.973 832.853 161.782C834.471 162.287 836.595 163.046 839.224 164.057C841.853 165.169 844.887 165.725 848.325 165.725C852.977 165.725 856.82 165.068 859.853 163.754C862.988 162.54 865.314 160.417 866.831 157.384C868.449 154.452 869.258 150.407 869.258 145.251V135.089L872.443 138.729C870.724 142.066 868.55 144.846 865.921 147.071C863.393 149.194 860.359 150.812 856.82 151.924C853.28 153.036 849.235 153.592 844.685 153.592C839.325 153.592 834.623 152.379 830.578 149.952C826.634 147.424 823.55 143.987 821.325 139.639C819.1 135.19 817.988 130.135 817.988 124.473V80.1866C817.988 77.5577 818.847 75.3839 820.566 73.665C822.285 71.845 824.46 70.9351 827.089 70.9351C829.718 70.9351 831.892 71.845 833.611 73.665C835.331 75.3839 836.19 77.5577 836.19 80.1866V119.013C836.19 125.585 837.606 130.236 840.437 132.966C843.37 135.595 847.415 136.909 852.572 136.909C856.112 136.909 859.095 136.252 861.522 134.937C863.949 133.522 865.82 131.5 867.134 128.871C868.449 126.141 869.106 122.855 869.106 119.013V80.1866C869.106 77.5577 869.966 75.3839 871.685 73.665C873.404 71.845 875.578 70.9351 878.207 70.9351Z" fill="#FFEAEA"/>
<path d="M742.245 152.075C739.616 152.075 737.441 151.216 735.722 149.497C734.003 147.677 733.144 145.453 733.144 142.824V49.0953C733.144 46.4664 734.003 44.2926 735.722 42.5737C737.441 40.7537 739.616 39.8438 742.245 39.8438C744.874 39.8438 747.048 40.7537 748.767 42.5737C750.486 44.2926 751.346 46.4664 751.346 49.0953V142.824C751.346 145.453 750.486 147.677 748.767 149.497C747.048 151.216 744.874 152.075 742.245 152.075ZM790.481 70.9349C792.807 70.9349 794.83 71.8955 796.549 73.8165C798.268 75.7376 799.127 77.6081 799.127 79.4281C799.127 81.8547 797.914 84.1297 795.487 86.253L749.829 128.264L749.071 107.334L783.807 73.8165C785.728 71.8955 787.953 70.9349 790.481 70.9349ZM792.757 151.924C790.127 151.924 787.903 150.913 786.082 148.89L758.02 119.164L771.824 106.424L799.127 136.151C801.049 138.173 802.01 140.448 802.01 142.975C802.01 145.604 800.948 147.778 798.824 149.497C796.802 151.115 794.779 151.924 792.757 151.924Z" fill="#FFEAEA"/>
<path d="M658.141 152.075C655.512 152.075 653.338 151.216 651.619 149.497C649.9 147.677 649.04 145.453 649.04 142.824V49.0953C649.04 46.4664 649.9 44.2926 651.619 42.5737C653.338 40.7537 655.512 39.8438 658.141 39.8438C660.771 39.8438 662.945 40.7537 664.664 42.5737C666.383 44.2926 667.243 46.4664 667.243 49.0953V142.824C667.243 145.453 666.383 147.677 664.664 149.497C662.945 151.216 660.771 152.075 658.141 152.075ZM706.378 70.9349C708.704 70.9349 710.726 71.8955 712.445 73.8165C714.165 75.7376 715.024 77.6081 715.024 79.4281C715.024 81.8547 713.811 84.1297 711.384 86.253L665.726 128.264L664.967 107.334L699.704 73.8165C701.625 71.8955 703.85 70.9349 706.378 70.9349ZM708.653 151.924C706.024 151.924 703.799 150.913 701.979 148.89L673.917 119.164L687.72 106.424L715.024 136.151C716.945 138.173 717.906 140.448 717.906 142.975C717.906 145.604 716.844 147.778 714.721 149.497C712.698 151.115 710.676 151.924 708.653 151.924Z" fill="#FFEAEA"/>
<path d="M625.782 142.824C625.782 145.453 624.923 147.677 623.204 149.497C621.484 151.216 619.31 152.075 616.681 152.075C614.052 152.075 611.878 151.216 610.158 149.497C608.439 147.677 607.58 145.453 607.58 142.824V80.1866C607.58 77.5577 608.439 75.3839 610.158 73.665C611.878 71.845 614.052 70.935 616.681 70.935C619.31 70.935 621.484 71.845 623.204 73.665C624.923 75.3839 625.782 77.5577 625.782 80.1866V142.824ZM616.529 61.0769C613.091 61.0769 610.664 60.5208 609.248 59.4086C607.833 58.2963 607.125 56.3247 607.125 53.4936V50.612C607.125 47.6798 607.883 45.7082 609.4 44.6971C611.018 43.5849 613.445 43.0288 616.681 43.0288C620.22 43.0288 622.698 43.5849 624.114 44.6971C625.529 45.8093 626.237 47.781 626.237 50.612V53.4936C626.237 56.4258 625.479 58.448 623.962 59.5602C622.445 60.5713 619.968 61.0769 616.529 61.0769Z" fill="#FFEAEA"/>
<path d="M548.155 153.592C542.391 153.592 537.031 152.429 532.076 150.104C527.121 147.778 523.076 144.442 519.941 140.094C518.728 138.274 518.121 136.505 518.121 134.786C518.121 132.258 519.082 130.135 521.003 128.416C523.026 126.697 524.998 125.838 526.919 125.838C528.436 125.838 529.902 126.293 531.318 127.203C532.835 128.113 534.2 129.174 535.413 130.388C537.436 132.207 539.408 133.522 541.329 134.331C543.352 135.039 545.627 135.392 548.155 135.392C551.189 135.392 554.02 134.634 556.65 133.117C559.279 131.601 561.403 129.579 563.021 127.051C564.639 124.523 565.448 121.793 565.448 118.861V55.162C565.448 52.5332 566.408 50.3593 568.33 48.6405C570.251 46.8205 572.476 45.9105 575.004 45.9105C577.835 45.9105 580.111 46.8205 581.83 48.6405C583.549 50.3593 584.408 52.5332 584.408 55.162V118.861C584.408 125.029 582.79 130.741 579.554 135.999C576.318 141.257 571.97 145.503 566.509 148.739C561.049 151.974 554.931 153.592 548.155 153.592Z" fill="#FFEAEA"/>
<path d="M468.749 114.614C466.12 114.614 463.895 113.755 462.075 112.036C460.356 110.317 459.496 108.143 459.496 105.515C459.496 102.886 460.356 100.762 462.075 99.1447C463.895 97.4258 466.12 96.5664 468.749 96.5664H495.143C497.772 96.5664 499.946 97.4764 501.665 99.2964C503.486 101.015 504.396 103.189 504.396 105.818C504.396 108.346 503.486 110.469 501.665 112.188C499.946 113.806 497.772 114.614 495.143 114.614H468.749Z" fill="#FFEAEA"/>
<path d="M436.55 45.7589C438.876 45.7589 440.848 46.6689 442.466 48.4888C444.185 50.3088 445.045 52.2299 445.045 54.2521C445.045 56.1732 444.387 57.9931 443.073 59.712L412.584 99.903L402.269 85.7983L429.118 50.1572C431.241 47.225 433.719 45.7589 436.55 45.7589ZM368.898 45.4556C371.83 45.4556 374.308 46.77 376.33 49.3988L443.073 138.122C444.286 139.74 444.893 141.611 444.893 143.734C444.893 146.565 443.882 148.789 441.859 150.407C439.837 152.025 437.814 152.834 435.792 152.834C432.859 152.834 430.382 151.519 428.359 148.891L361.617 60.167C360.302 58.5492 359.645 56.7293 359.645 54.7071C359.645 52.0782 360.605 49.9044 362.527 48.1855C364.549 46.3655 366.673 45.4556 368.898 45.4556ZM367.533 152.834C365.308 152.834 363.386 152.025 361.768 150.407C360.15 148.688 359.341 146.818 359.341 144.796C359.341 142.571 360.1 140.498 361.617 138.577L392.409 96.8697L402.421 111.581L375.117 148.587C373.094 151.418 370.566 152.834 367.533 152.834Z" fill="#FFEAEA"/>
<path d="M332.895 45.9105C335.322 45.9105 337.293 46.7194 338.81 48.3372C340.327 49.9549 341.086 51.9771 341.086 54.4037V142.824C341.086 145.453 340.175 147.677 338.355 149.497C336.636 151.216 334.462 152.076 331.833 152.076C330.518 152.076 329.153 151.873 327.737 151.469C326.423 150.963 325.411 150.306 324.703 149.497L265.09 73.8167L269.034 71.3901V143.582C269.034 146.009 268.225 148.031 266.607 149.649C265.09 151.267 263.068 152.076 260.54 152.076C258.113 152.076 256.141 151.267 254.624 149.649C253.107 148.031 252.349 146.009 252.349 143.582V55.162C252.349 52.5332 253.208 50.3593 254.927 48.6405C256.748 46.8205 258.972 45.9105 261.602 45.9105C263.017 45.9105 264.484 46.2139 266 46.8205C267.517 47.3261 268.63 48.1349 269.338 49.2471L327.13 122.956L324.552 124.776V54.4037C324.552 51.9771 325.31 49.9549 326.827 48.3372C328.344 46.7194 330.366 45.9105 332.895 45.9105Z" fill="#FFEAEA"/>
<g clip-path="url(#clip0_5_6)">
<path fill-rule="evenodd" clip-rule="evenodd" d="M39.3255 15.1698C48.9679 8.4744 59.8175 3.93505 71.252 1.83567C82.6866 -0.263707 94.4414 0.125483 105.834 2.95895C117.223 5.79174 128.005 11.0058 137.578 18.2601C147.148 25.5132 155.329 34.6676 161.682 45.178C168.034 55.688 172.448 67.3692 174.687 79.5581L181.403 116.129C182.95 124.55 181.405 133.32 176.904 140.514C173.767 145.527 169.354 149.504 164.157 151.98C163.988 157.984 162.283 163.882 159.089 168.987C154.57 176.21 147.401 181.281 139.056 182.813L111.19 187.929C106.646 188.763 102.286 185.756 101.451 181.213C100.617 176.669 103.624 172.31 108.168 171.475L136.034 166.359C139.514 165.72 142.742 163.572 144.904 160.115C146.107 158.193 146.912 155.964 147.254 153.595C145.297 152.917 143.445 151.925 141.769 150.655C137.516 147.432 134.7 142.668 133.747 137.48L124.791 88.7188C123.839 83.5301 124.778 78.0771 127.609 73.5529C130.458 68.9999 135.028 65.734 140.416 64.7446C144.691 63.9598 149.007 64.1525 153.113 65.2189C151.481 61.2748 149.559 57.4653 147.362 53.8305C142.07 45.075 135.301 37.526 127.471 31.5921C119.643 25.6593 110.913 21.4608 101.795 19.193C92.6796 16.9259 83.3318 16.6263 74.2738 18.2894C65.2159 19.9524 56.5844 23.553 48.8693 28.9101C41.1519 34.2689 34.4837 41.2945 29.274 49.621C24.0632 57.9493 20.4182 67.4102 18.5824 77.4744C17.8204 81.6525 17.3771 85.8963 17.2537 90.1625C20.713 87.7072 24.679 85.9939 28.9534 85.2091C34.3421 84.2198 39.7743 85.6493 44.0549 88.8934C48.3085 92.1169 51.1245 96.8803 52.0775 102.069L61.0326 150.83C61.9856 156.019 61.0458 161.472 58.2152 165.996C55.3665 170.549 50.7966 173.815 45.408 174.804C37.0631 176.336 28.5599 174.143 21.7691 168.996C15.0053 163.871 10.4455 156.222 8.89882 147.8L2.18244 111.23C-0.0560984 99.0409 -0.0809773 86.5538 2.1226 74.473C4.32628 62.3917 8.7204 50.9285 15.0895 40.7489C21.4598 30.5675 29.6854 21.8637 39.3255 15.1698ZM25.355 144.779C26.1834 149.289 28.5987 153.181 31.8757 155.664C35.1256 158.127 38.9063 158.989 42.3861 158.35C42.9099 158.254 43.5384 157.91 44.0307 157.124C44.541 156.308 44.811 155.129 44.5764 153.851L35.6213 105.09C35.3867 103.813 34.7152 102.806 33.9484 102.225C33.2086 101.665 32.4989 101.567 31.9752 101.663C28.4953 102.302 25.2675 104.45 23.1048 107.907C20.924 111.392 20.0491 115.888 20.8774 120.399L25.355 144.779ZM160.469 94.7696C159.641 90.2592 157.225 86.3676 153.948 83.8842C150.699 81.4213 146.918 80.5594 143.438 81.1983C142.914 81.2945 142.286 81.6382 141.793 82.425C141.283 83.2406 141.013 84.4201 141.248 85.6974L150.203 134.458C150.437 135.736 151.109 136.742 151.876 137.323C152.615 137.884 153.325 137.982 153.849 137.886C157.329 137.247 160.557 135.098 162.719 131.642C164.9 128.156 165.775 123.66 164.947 119.15L160.469 94.7696Z" fill="#FFEAEA"/>
<path d="M153.948 83.8842C157.225 86.3676 159.641 90.2592 160.469 94.7696L164.947 119.15C165.775 123.66 164.9 128.156 162.719 131.642C160.557 135.098 157.329 137.247 153.849 137.886C153.325 137.982 152.615 137.884 151.876 137.323C151.109 136.742 150.437 135.736 150.203 134.458L141.248 85.6974C141.013 84.4201 141.283 83.2406 141.793 82.425C142.286 81.6382 142.914 81.2945 143.438 81.1983C146.918 80.5594 150.699 81.4213 153.948 83.8842Z" fill="#E64F61"/>
<path d="M31.8757 155.664C28.5987 153.181 26.1834 149.289 25.355 144.779L20.8774 120.399C20.0491 115.888 20.924 111.392 23.1048 107.907C25.2675 104.45 28.4953 102.302 31.9752 101.663C32.4989 101.567 33.2086 101.665 33.9484 102.225C34.7152 102.806 35.3867 103.813 35.6213 105.09L44.5764 153.851C44.811 155.129 44.541 156.308 44.0307 157.124C43.5384 157.91 42.9099 158.254 42.3861 158.35C38.9063 158.989 35.1256 158.127 31.8757 155.664Z" fill="#E64F61"/>
</g>
<defs>
<clipPath id="clip0_5_6">
<rect width="183" height="189" fill="white"/>
</clipPath>
</defs>
</svg>
