<svg width="1000" height="219" viewBox="0 0 1000 219" fill="none" xmlns="http://www.w3.org/2000/svg">
<path d="M1000 125.581C1000 133.872 998.129 141.203 994.387 147.573C990.747 153.841 985.792 158.745 979.522 162.284C973.353 165.823 966.426 167.592 958.741 167.592C951.055 167.592 944.078 165.823 937.808 162.284C931.639 158.745 926.684 153.841 922.943 147.573C919.302 141.203 917.482 133.872 917.482 125.581C917.482 117.29 919.302 110.01 922.943 103.742C926.684 97.3717 931.639 92.4173 937.808 88.8785C944.078 85.2386 951.055 83.4186 958.741 83.4186C966.426 83.4186 973.353 85.2386 979.522 88.8785C985.792 92.4173 990.747 97.3717 994.387 103.742C998.129 110.01 1000 117.29 1000 125.581ZM981.797 125.581C981.797 120.425 980.736 115.976 978.612 112.235C976.589 108.393 973.809 105.41 970.269 103.287C966.831 101.163 962.988 100.102 958.741 100.102C954.494 100.102 950.6 101.163 947.061 103.287C943.623 105.41 940.842 108.393 938.718 112.235C936.696 115.976 935.684 120.425 935.684 125.581C935.684 130.637 936.696 135.086 938.718 138.928C940.842 142.669 943.623 145.601 947.061 147.724C950.6 149.848 954.494 150.909 958.741 150.909C962.988 150.909 966.831 149.848 970.269 147.724C973.809 145.601 976.589 142.669 978.612 138.928C980.736 135.086 981.797 130.637 981.797 125.581Z" fill="#FFFDF5"/>
<path d="M893.207 84.9351C895.837 84.9351 898.011 85.845 899.73 87.665C901.449 89.3839 902.309 91.5577 902.309 94.1866V158.644C902.309 167.946 900.539 175.327 897 180.787C893.561 186.348 888.91 190.342 883.044 192.768C877.179 195.195 870.606 196.408 863.325 196.408C860.089 196.408 856.651 196.156 853.01 195.65C849.37 195.144 846.387 194.386 844.061 193.375C841.027 192.061 838.903 190.392 837.69 188.37C836.578 186.449 836.375 184.376 837.083 182.152C837.993 179.22 839.46 177.197 841.482 176.085C843.505 175.074 845.628 174.973 847.853 175.782C849.471 176.287 851.595 177.046 854.224 178.057C856.853 179.169 859.887 179.725 863.325 179.725C867.977 179.725 871.82 179.068 874.853 177.754C877.988 176.54 880.314 174.417 881.831 171.384C883.449 168.452 884.258 164.407 884.258 159.251V149.089L887.443 152.729C885.724 156.066 883.55 158.846 880.921 161.071C878.393 163.194 875.359 164.812 871.82 165.924C868.28 167.036 864.235 167.592 859.685 167.592C854.325 167.592 849.623 166.379 845.578 163.952C841.634 161.424 838.55 157.987 836.325 153.639C834.1 149.19 832.988 144.135 832.988 138.473V94.1866C832.988 91.5577 833.847 89.3839 835.566 87.665C837.285 85.845 839.46 84.9351 842.089 84.9351C844.718 84.9351 846.892 85.845 848.611 87.665C850.331 89.3839 851.19 91.5577 851.19 94.1866V133.013C851.19 139.585 852.606 144.236 855.437 146.966C858.37 149.595 862.415 150.909 867.572 150.909C871.112 150.909 874.095 150.252 876.522 148.937C878.949 147.522 880.82 145.5 882.134 142.871C883.449 140.141 884.106 136.855 884.106 133.013V94.1866C884.106 91.5577 884.966 89.3839 886.685 87.665C888.404 85.845 890.578 84.9351 893.207 84.9351Z" fill="#FFFDF5"/>
<path d="M757.245 166.075C754.616 166.075 752.441 165.216 750.722 163.497C749.003 161.677 748.144 159.453 748.144 156.824V63.0953C748.144 60.4664 749.003 58.2926 750.722 56.5737C752.441 54.7537 754.616 53.8438 757.245 53.8438C759.874 53.8438 762.048 54.7537 763.767 56.5737C765.486 58.2926 766.346 60.4664 766.346 63.0953V156.824C766.346 159.453 765.486 161.677 763.767 163.497C762.048 165.216 759.874 166.075 757.245 166.075ZM805.481 84.9349C807.807 84.9349 809.83 85.8955 811.549 87.8165C813.268 89.7376 814.127 91.6081 814.127 93.4281C814.127 95.8547 812.914 98.1297 810.487 100.253L764.829 142.264L764.071 121.334L798.807 87.8165C800.728 85.8955 802.953 84.9349 805.481 84.9349ZM807.757 165.924C805.127 165.924 802.903 164.913 801.082 162.89L773.02 133.164L786.824 120.424L814.127 150.151C816.049 152.173 817.01 154.448 817.01 156.975C817.01 159.604 815.948 161.778 813.824 163.497C811.802 165.115 809.779 165.924 807.757 165.924Z" fill="#FFFDF5"/>
<path d="M673.141 166.075C670.512 166.075 668.338 165.216 666.619 163.497C664.9 161.677 664.04 159.453 664.04 156.824V63.0953C664.04 60.4664 664.9 58.2926 666.619 56.5737C668.338 54.7537 670.512 53.8438 673.141 53.8438C675.771 53.8438 677.945 54.7537 679.664 56.5737C681.383 58.2926 682.243 60.4664 682.243 63.0953V156.824C682.243 159.453 681.383 161.677 679.664 163.497C677.945 165.216 675.771 166.075 673.141 166.075ZM721.378 84.9349C723.704 84.9349 725.726 85.8955 727.445 87.8165C729.165 89.7376 730.024 91.6081 730.024 93.4281C730.024 95.8547 728.811 98.1297 726.384 100.253L680.726 142.264L679.967 121.334L714.704 87.8165C716.625 85.8955 718.85 84.9349 721.378 84.9349ZM723.653 165.924C721.024 165.924 718.799 164.913 716.979 162.89L688.917 133.164L702.72 120.424L730.024 150.151C731.945 152.173 732.906 154.448 732.906 156.975C732.906 159.604 731.844 161.778 729.721 163.497C727.698 165.115 725.676 165.924 723.653 165.924Z" fill="#FFFDF5"/>
<path d="M640.782 156.824C640.782 159.453 639.923 161.677 638.204 163.497C636.484 165.216 634.31 166.075 631.681 166.075C629.052 166.075 626.878 165.216 625.158 163.497C623.439 161.677 622.58 159.453 622.58 156.824V94.1866C622.58 91.5577 623.439 89.3839 625.158 87.665C626.878 85.845 629.052 84.935 631.681 84.935C634.31 84.935 636.484 85.845 638.204 87.665C639.923 89.3839 640.782 91.5577 640.782 94.1866V156.824ZM631.529 75.0769C628.091 75.0769 625.664 74.5208 624.248 73.4086C622.833 72.2963 622.125 70.3247 622.125 67.4936V64.612C622.125 61.6798 622.883 59.7082 624.4 58.6971C626.018 57.5849 628.445 57.0288 631.681 57.0288C635.22 57.0288 637.698 57.5849 639.114 58.6971C640.529 59.8093 641.237 61.781 641.237 64.612V67.4936C641.237 70.4258 640.479 72.448 638.962 73.5602C637.445 74.5713 634.968 75.0769 631.529 75.0769Z" fill="#FFFDF5"/>
<path d="M563.155 167.592C557.391 167.592 552.031 166.429 547.076 164.104C542.121 161.778 538.076 158.442 534.941 154.094C533.728 152.274 533.121 150.505 533.121 148.786C533.121 146.258 534.082 144.135 536.003 142.416C538.026 140.697 539.998 139.838 541.919 139.838C543.436 139.838 544.902 140.293 546.318 141.203C547.835 142.113 549.2 143.174 550.413 144.388C552.436 146.207 554.408 147.522 556.329 148.331C558.352 149.039 560.627 149.392 563.155 149.392C566.189 149.392 569.02 148.634 571.65 147.117C574.279 145.601 576.403 143.579 578.021 141.051C579.639 138.523 580.448 135.793 580.448 132.861V69.162C580.448 66.5332 581.408 64.3593 583.33 62.6405C585.251 60.8205 587.476 59.9105 590.004 59.9105C592.835 59.9105 595.111 60.8205 596.83 62.6405C598.549 64.3593 599.408 66.5332 599.408 69.162V132.861C599.408 139.029 597.79 144.741 594.554 149.999C591.318 155.257 586.97 159.503 581.509 162.739C576.049 165.974 569.931 167.592 563.155 167.592Z" fill="#FFFDF5"/>
<path d="M483.749 128.614C481.12 128.614 478.895 127.755 477.075 126.036C475.356 124.317 474.496 122.143 474.496 119.515C474.496 116.886 475.356 114.762 477.075 113.145C478.895 111.426 481.12 110.566 483.749 110.566H510.143C512.772 110.566 514.946 111.476 516.665 113.296C518.486 115.015 519.396 117.189 519.396 119.818C519.396 122.346 518.486 124.469 516.665 126.188C514.946 127.806 512.772 128.614 510.143 128.614H483.749Z" fill="#FFFDF5"/>
<path d="M451.55 59.7589C453.876 59.7589 455.848 60.6689 457.466 62.4888C459.185 64.3088 460.045 66.2299 460.045 68.2521C460.045 70.1732 459.387 71.9931 458.073 73.712L427.584 113.903L417.269 99.7983L444.118 64.1572C446.241 61.225 448.719 59.7589 451.55 59.7589ZM383.898 59.4556C386.83 59.4556 389.308 60.77 391.33 63.3988L458.073 152.122C459.286 153.74 459.893 155.611 459.893 157.734C459.893 160.565 458.882 162.789 456.859 164.407C454.837 166.025 452.814 166.834 450.792 166.834C447.859 166.834 445.382 165.519 443.359 162.891L376.617 74.167C375.302 72.5492 374.645 70.7293 374.645 68.7071C374.645 66.0782 375.605 63.9044 377.527 62.1855C379.549 60.3655 381.673 59.4556 383.898 59.4556ZM382.533 166.834C380.308 166.834 378.386 166.025 376.768 164.407C375.15 162.688 374.341 160.818 374.341 158.796C374.341 156.571 375.1 154.498 376.617 152.577L407.409 110.87L417.421 125.581L390.117 162.587C388.094 165.418 385.566 166.834 382.533 166.834Z" fill="#FFFDF5"/>
<path d="M347.895 59.9105C350.322 59.9105 352.293 60.7194 353.81 62.3372C355.327 63.9549 356.086 65.9771 356.086 68.4037V156.824C356.086 159.453 355.175 161.677 353.355 163.497C351.636 165.216 349.462 166.076 346.833 166.076C345.518 166.076 344.153 165.873 342.737 165.469C341.423 164.963 340.411 164.306 339.703 163.497L280.09 87.8167L284.034 85.3901V157.582C284.034 160.009 283.225 162.031 281.607 163.649C280.09 165.267 278.068 166.076 275.54 166.076C273.113 166.076 271.141 165.267 269.624 163.649C268.107 162.031 267.349 160.009 267.349 157.582V69.162C267.349 66.5332 268.208 64.3593 269.927 62.6405C271.748 60.8205 273.972 59.9105 276.602 59.9105C278.017 59.9105 279.484 60.2139 281 60.8205C282.517 61.3261 283.63 62.1349 284.338 63.2471L342.13 136.956L339.552 138.776V68.4037C339.552 65.9771 340.31 63.9549 341.827 62.3372C343.344 60.7194 345.366 59.9105 347.895 59.9105Z" fill="#FFFDF5"/>
<path fill-rule="evenodd" clip-rule="evenodd" d="M54.3255 29.1698C63.9679 22.4744 74.8175 17.9351 86.252 15.8357C97.6866 13.7363 109.441 14.1255 120.834 16.959C132.223 19.7917 143.005 25.0058 152.578 32.2601C162.148 39.5132 170.329 48.6676 176.682 59.178C183.034 69.688 187.448 81.3692 189.687 93.5581L196.403 130.129C197.95 138.55 196.405 147.32 191.904 154.514C188.767 159.527 184.354 163.504 179.157 165.98C178.988 171.984 177.283 177.882 174.089 182.987C169.57 190.21 162.401 195.281 154.056 196.813L126.19 201.929C121.646 202.763 117.286 199.756 116.451 195.213C115.617 190.669 118.624 186.31 123.168 185.475L151.034 180.359C154.514 179.72 157.742 177.572 159.904 174.115C161.107 172.193 161.912 169.964 162.254 167.595C160.297 166.917 158.445 165.925 156.769 164.655C152.516 161.432 149.7 156.668 148.747 151.48L139.791 102.719C138.839 97.5301 139.778 92.0771 142.609 87.5529C145.458 82.9999 150.028 79.734 155.416 78.7446C159.691 77.9598 164.007 78.1525 168.113 79.2189C166.481 75.2748 164.559 71.4653 162.362 67.8305C157.07 59.075 150.301 51.526 142.471 45.5921C134.643 39.6593 125.913 35.4608 116.795 33.193C107.68 30.9259 98.3318 30.6263 89.2738 32.2894C80.2159 33.9524 71.5844 37.553 63.8693 42.9101C56.1519 48.2689 49.4837 55.2945 44.274 63.621C39.0632 71.9493 35.4182 81.4102 33.5824 91.4744C32.8204 95.6525 32.3771 99.8963 32.2537 104.163C35.713 101.707 39.679 99.9939 43.9534 99.2091C49.342 98.2198 54.7743 99.6493 59.0549 102.893C63.3085 106.117 66.1245 110.88 67.0775 116.069L76.0326 164.83C76.9856 170.019 76.0458 175.472 73.2152 179.996C70.3665 184.549 65.7966 187.815 60.408 188.804C52.0631 190.336 43.5599 188.143 36.7691 182.996C30.0053 177.871 25.4455 170.222 23.8988 161.8L17.1824 125.23C14.9439 113.041 14.919 100.554 17.1226 88.473C19.3263 76.3917 23.7204 64.9285 30.0895 54.7489C36.4598 44.5675 44.6854 35.8637 54.3255 29.1698ZM40.355 158.779C41.1834 163.289 43.5987 167.181 46.8757 169.664C50.1256 172.127 53.9063 172.989 57.3862 172.35C57.9099 172.254 58.5384 171.91 59.0307 171.124C59.541 170.308 59.811 169.129 59.5764 167.851L50.6213 119.09C50.3867 117.813 49.7152 116.806 48.9484 116.225C48.2086 115.665 47.4989 115.567 46.9752 115.663C43.4953 116.302 40.2675 118.45 38.1048 121.907C35.924 125.392 35.0491 129.888 35.8774 134.399L40.355 158.779ZM175.469 108.77C174.641 104.259 172.225 100.368 168.948 97.8842C165.699 95.4213 161.918 94.5594 158.438 95.1983C157.914 95.2945 157.286 95.6382 156.793 96.425C156.283 97.2406 156.013 98.4201 156.248 99.6974L165.203 148.458C165.437 149.736 166.109 150.742 166.876 151.323C167.616 151.884 168.325 151.982 168.849 151.886C172.329 151.247 175.557 149.098 177.719 145.642C179.9 142.156 180.775 137.66 179.947 133.15L175.469 108.77Z" fill="#FFFDF5"/>
<path d="M168.948 97.8842C172.225 100.368 174.641 104.259 175.469 108.77L179.947 133.15C180.775 137.66 179.9 142.156 177.719 145.642C175.557 149.098 172.329 151.247 168.849 151.886C168.325 151.982 167.616 151.884 166.876 151.323C166.109 150.742 165.437 149.736 165.203 148.458L156.248 99.6974C156.013 98.4201 156.283 97.2406 156.793 96.425C157.286 95.6382 157.914 95.2945 158.438 95.1983C161.918 94.5594 165.699 95.4213 168.948 97.8842Z" fill="#E64F57"/>
<path d="M46.8757 169.664C43.5987 167.181 41.1834 163.289 40.355 158.779L35.8774 134.399C35.0491 129.888 35.924 125.392 38.1048 121.907C40.2675 118.45 43.4953 116.302 46.9752 115.663C47.4989 115.567 48.2086 115.665 48.9484 116.225C49.7152 116.806 50.3867 117.813 50.6213 119.09L59.5764 167.851C59.811 169.129 59.541 170.308 59.0307 171.124C58.5384 171.91 57.9099 172.254 57.3862 172.35C53.9063 172.989 50.1256 172.127 46.8757 169.664Z" fill="#E64F57"/>
</svg>
